<mxfile host="Electron" modified="2023-12-11T09:30:00.357Z" agent="Mozilla/5.0 (Macintosh; Intel Mac OS X 10_15_7) AppleWebKit/537.36 (KHTML, like Gecko) draw.io/21.6.5 Chrome/114.0.5735.243 Electron/25.3.1 Safari/537.36" etag="QcsQAYt_pP83ImKEKR-O" version="21.6.5" type="device">
  <diagram name="Page-1" id="u37TB7vUdLOcK38cvxuV">
    <mxGraphModel dx="375" dy="573" grid="0" gridSize="10" guides="1" tooltips="1" connect="1" arrows="1" fold="1" page="1" pageScale="1" pageWidth="1100" pageHeight="850" math="0" shadow="0">
      <root>
        <mxCell id="0" />
        <mxCell id="1" parent="0" />
        <mxCell id="KQbl9YXFgSvufpDEPHad-10" style="edgeStyle=orthogonalEdgeStyle;rounded=0;orthogonalLoop=1;jettySize=auto;html=1;exitX=1;exitY=0.5;exitDx=0;exitDy=0;entryX=0;entryY=0.5;entryDx=0;entryDy=0;" edge="1" parent="1" source="KQbl9YXFgSvufpDEPHad-1" target="KQbl9YXFgSvufpDEPHad-2">
          <mxGeometry relative="1" as="geometry" />
        </mxCell>
        <mxCell id="KQbl9YXFgSvufpDEPHad-1" value="Github Repo" style="rounded=0;whiteSpace=wrap;html=1;fillColor=#dae8fc;strokeColor=#6c8ebf;" vertex="1" parent="1">
          <mxGeometry x="180" y="320" width="120" height="60" as="geometry" />
        </mxCell>
        <mxCell id="KQbl9YXFgSvufpDEPHad-5" style="edgeStyle=orthogonalEdgeStyle;rounded=0;orthogonalLoop=1;jettySize=auto;html=1;exitX=0.5;exitY=1;exitDx=0;exitDy=0;" edge="1" parent="1" source="KQbl9YXFgSvufpDEPHad-2" target="KQbl9YXFgSvufpDEPHad-3">
          <mxGeometry relative="1" as="geometry" />
        </mxCell>
        <mxCell id="KQbl9YXFgSvufpDEPHad-2" value="Github App" style="rounded=0;whiteSpace=wrap;html=1;fillColor=#d5e8d4;strokeColor=#82b366;" vertex="1" parent="1">
          <mxGeometry x="340" y="320" width="120" height="60" as="geometry" />
        </mxCell>
        <mxCell id="KQbl9YXFgSvufpDEPHad-7" style="edgeStyle=orthogonalEdgeStyle;rounded=0;orthogonalLoop=1;jettySize=auto;html=1;exitX=0.5;exitY=1;exitDx=0;exitDy=0;entryX=0.75;entryY=0;entryDx=0;entryDy=0;" edge="1" parent="1" source="KQbl9YXFgSvufpDEPHad-3" target="KQbl9YXFgSvufpDEPHad-4">
          <mxGeometry relative="1" as="geometry" />
        </mxCell>
        <mxCell id="KQbl9YXFgSvufpDEPHad-11" value="webhook" style="edgeLabel;html=1;align=center;verticalAlign=middle;resizable=0;points=[];" vertex="1" connectable="0" parent="KQbl9YXFgSvufpDEPHad-7">
          <mxGeometry x="-0.1149" relative="1" as="geometry">
            <mxPoint as="offset" />
          </mxGeometry>
        </mxCell>
        <mxCell id="KQbl9YXFgSvufpDEPHad-3" value="SMEE Server" style="rounded=0;whiteSpace=wrap;html=1;fillColor=#f8cecc;strokeColor=#b85450;" vertex="1" parent="1">
          <mxGeometry x="340" y="440" width="120" height="60" as="geometry" />
        </mxCell>
        <mxCell id="KQbl9YXFgSvufpDEPHad-8" style="edgeStyle=orthogonalEdgeStyle;rounded=0;orthogonalLoop=1;jettySize=auto;html=1;exitX=0.25;exitY=0;exitDx=0;exitDy=0;entryX=0.5;entryY=1;entryDx=0;entryDy=0;" edge="1" parent="1" source="KQbl9YXFgSvufpDEPHad-4" target="KQbl9YXFgSvufpDEPHad-1">
          <mxGeometry relative="1" as="geometry" />
        </mxCell>
        <mxCell id="KQbl9YXFgSvufpDEPHad-9" value="API&lt;br&gt;Request" style="edgeLabel;html=1;align=center;verticalAlign=middle;resizable=0;points=[];" vertex="1" connectable="0" parent="KQbl9YXFgSvufpDEPHad-8">
          <mxGeometry x="-0.1073" relative="1" as="geometry">
            <mxPoint as="offset" />
          </mxGeometry>
        </mxCell>
        <mxCell id="KQbl9YXFgSvufpDEPHad-4" value="JS Server" style="rounded=0;whiteSpace=wrap;html=1;fillColor=#f8cecc;strokeColor=#b85450;" vertex="1" parent="1">
          <mxGeometry x="160" y="560" width="320" height="60" as="geometry" />
        </mxCell>
      </root>
    </mxGraphModel>
  </diagram>
</mxfile>
